<mxfile host="app.diagrams.net" modified="2022-04-21T18:10:26.673Z" agent="5.0 (Windows NT 10.0; Win64; x64) AppleWebKit/537.36 (KHTML, like Gecko) Chrome/100.0.4896.88 Safari/537.36" etag="BjTfvHu7pma5PFOZk8mm" version="15.9.4" type="github">
  <diagram id="aNkTvLlGlRAXNMfGRCiO" name="Page-1">
    <mxGraphModel dx="1550" dy="867" grid="1" gridSize="10" guides="1" tooltips="1" connect="1" arrows="1" fold="1" page="1" pageScale="1" pageWidth="1169" pageHeight="827" math="0" shadow="0">
      <root>
        <mxCell id="0" />
        <mxCell id="1" parent="0" />
        <mxCell id="K40myK_4YShfCYtrGLyM-1" value="TopNodeSelector" style="rounded=1;whiteSpace=wrap;html=1;" vertex="1" parent="1">
          <mxGeometry x="525" y="50" width="120" height="60" as="geometry" />
        </mxCell>
        <mxCell id="K40myK_4YShfCYtrGLyM-2" value="" style="endArrow=classic;html=1;rounded=0;entryX=0.5;entryY=0;entryDx=0;entryDy=0;" edge="1" parent="1">
          <mxGeometry width="50" height="50" relative="1" as="geometry">
            <mxPoint x="530" y="110" as="sourcePoint" />
            <mxPoint x="190" y="160" as="targetPoint" />
          </mxGeometry>
        </mxCell>
        <mxCell id="K40myK_4YShfCYtrGLyM-4" value="" style="endArrow=classic;html=1;rounded=0;" edge="1" parent="1">
          <mxGeometry width="50" height="50" relative="1" as="geometry">
            <mxPoint x="180" y="220" as="sourcePoint" />
            <mxPoint x="130" y="270" as="targetPoint" />
          </mxGeometry>
        </mxCell>
        <mxCell id="K40myK_4YShfCYtrGLyM-5" value="IsCovered" style="rounded=1;whiteSpace=wrap;html=1;" vertex="1" parent="1">
          <mxGeometry x="50" y="270" width="120" height="60" as="geometry" />
        </mxCell>
        <mxCell id="K40myK_4YShfCYtrGLyM-6" value="" style="endArrow=classic;html=1;rounded=0;" edge="1" parent="1">
          <mxGeometry width="50" height="50" relative="1" as="geometry">
            <mxPoint x="195" y="220" as="sourcePoint" />
            <mxPoint x="250" y="270" as="targetPoint" />
          </mxGeometry>
        </mxCell>
        <mxCell id="K40myK_4YShfCYtrGLyM-7" value="HealAI" style="rounded=1;whiteSpace=wrap;html=1;" vertex="1" parent="1">
          <mxGeometry x="200" y="270" width="120" height="60" as="geometry" />
        </mxCell>
        <mxCell id="K40myK_4YShfCYtrGLyM-9" value="" style="endArrow=classic;html=1;rounded=0;entryX=0.5;entryY=0;entryDx=0;entryDy=0;" edge="1" parent="1">
          <mxGeometry width="50" height="50" relative="1" as="geometry">
            <mxPoint x="550" y="110" as="sourcePoint" />
            <mxPoint x="465" y="160" as="targetPoint" />
          </mxGeometry>
        </mxCell>
        <mxCell id="K40myK_4YShfCYtrGLyM-10" value="" style="endArrow=classic;html=1;rounded=0;" edge="1" parent="1">
          <mxGeometry width="50" height="50" relative="1" as="geometry">
            <mxPoint x="455" y="220" as="sourcePoint" />
            <mxPoint x="405" y="270" as="targetPoint" />
          </mxGeometry>
        </mxCell>
        <mxCell id="K40myK_4YShfCYtrGLyM-11" value="IsHealthLow" style="rounded=1;whiteSpace=wrap;html=1;" vertex="1" parent="1">
          <mxGeometry x="350" y="270" width="120" height="60" as="geometry" />
        </mxCell>
        <mxCell id="K40myK_4YShfCYtrGLyM-12" value="" style="endArrow=classic;html=1;rounded=0;" edge="1" parent="1">
          <mxGeometry width="50" height="50" relative="1" as="geometry">
            <mxPoint x="490" y="220" as="sourcePoint" />
            <mxPoint x="540" y="270" as="targetPoint" />
          </mxGeometry>
        </mxCell>
        <mxCell id="K40myK_4YShfCYtrGLyM-13" value="TryToTakeCover&lt;br&gt;Selector" style="rounded=1;whiteSpace=wrap;html=1;" vertex="1" parent="1">
          <mxGeometry x="490" y="270" width="120" height="60" as="geometry" />
        </mxCell>
        <mxCell id="K40myK_4YShfCYtrGLyM-14" value="" style="endArrow=classic;html=1;rounded=0;entryX=0.5;entryY=0;entryDx=0;entryDy=0;exitX=0.25;exitY=1;exitDx=0;exitDy=0;" edge="1" parent="1" source="K40myK_4YShfCYtrGLyM-13" target="K40myK_4YShfCYtrGLyM-15">
          <mxGeometry width="50" height="50" relative="1" as="geometry">
            <mxPoint x="520" y="330" as="sourcePoint" />
            <mxPoint x="470" y="380" as="targetPoint" />
          </mxGeometry>
        </mxCell>
        <mxCell id="K40myK_4YShfCYtrGLyM-15" value="IsCovered" style="rounded=1;whiteSpace=wrap;html=1;" vertex="1" parent="1">
          <mxGeometry x="405" y="380" width="120" height="60" as="geometry" />
        </mxCell>
        <mxCell id="K40myK_4YShfCYtrGLyM-16" value="GoToCoverSequence" style="rounded=1;whiteSpace=wrap;html=1;" vertex="1" parent="1">
          <mxGeometry x="560" y="380" width="120" height="60" as="geometry" />
        </mxCell>
        <mxCell id="K40myK_4YShfCYtrGLyM-17" value="" style="endArrow=classic;html=1;rounded=0;entryX=0.5;entryY=0;entryDx=0;entryDy=0;exitX=0.75;exitY=1;exitDx=0;exitDy=0;" edge="1" parent="1" source="K40myK_4YShfCYtrGLyM-13" target="K40myK_4YShfCYtrGLyM-16">
          <mxGeometry width="50" height="50" relative="1" as="geometry">
            <mxPoint x="530" y="340" as="sourcePoint" />
            <mxPoint x="480" y="390" as="targetPoint" />
          </mxGeometry>
        </mxCell>
        <mxCell id="K40myK_4YShfCYtrGLyM-18" value="" style="endArrow=classic;html=1;rounded=0;entryX=0.5;entryY=0;entryDx=0;entryDy=0;exitX=0.25;exitY=1;exitDx=0;exitDy=0;" edge="1" parent="1">
          <mxGeometry width="50" height="50" relative="1" as="geometry">
            <mxPoint x="605" y="440" as="sourcePoint" />
            <mxPoint x="550" y="490" as="targetPoint" />
          </mxGeometry>
        </mxCell>
        <mxCell id="K40myK_4YShfCYtrGLyM-19" value="coverAvaible" style="rounded=1;whiteSpace=wrap;html=1;" vertex="1" parent="1">
          <mxGeometry x="490" y="490" width="120" height="60" as="geometry" />
        </mxCell>
        <mxCell id="K40myK_4YShfCYtrGLyM-20" value="GoToCover" style="rounded=1;whiteSpace=wrap;html=1;" vertex="1" parent="1">
          <mxGeometry x="640" y="490" width="120" height="60" as="geometry" />
        </mxCell>
        <mxCell id="K40myK_4YShfCYtrGLyM-21" value="" style="endArrow=classic;html=1;rounded=0;entryX=0.5;entryY=0;entryDx=0;entryDy=0;exitX=0.25;exitY=1;exitDx=0;exitDy=0;" edge="1" parent="1" target="K40myK_4YShfCYtrGLyM-20">
          <mxGeometry width="50" height="50" relative="1" as="geometry">
            <mxPoint x="640" y="440" as="sourcePoint" />
            <mxPoint x="585" y="490" as="targetPoint" />
          </mxGeometry>
        </mxCell>
        <mxCell id="K40myK_4YShfCYtrGLyM-22" value="" style="endArrow=classic;html=1;rounded=0;exitX=0.75;exitY=1;exitDx=0;exitDy=0;entryX=0.5;entryY=0;entryDx=0;entryDy=0;" edge="1" parent="1" source="K40myK_4YShfCYtrGLyM-1" target="K40myK_4YShfCYtrGLyM-23">
          <mxGeometry width="50" height="50" relative="1" as="geometry">
            <mxPoint x="645" y="110" as="sourcePoint" />
            <mxPoint x="700" y="160" as="targetPoint" />
          </mxGeometry>
        </mxCell>
        <mxCell id="K40myK_4YShfCYtrGLyM-23" value="TailGatingSequence" style="rounded=1;whiteSpace=wrap;html=1;" vertex="1" parent="1">
          <mxGeometry x="640" y="160" width="120" height="60" as="geometry" />
        </mxCell>
        <mxCell id="K40myK_4YShfCYtrGLyM-24" value="" style="endArrow=classic;html=1;rounded=0;exitX=0.25;exitY=1;exitDx=0;exitDy=0;" edge="1" parent="1" source="K40myK_4YShfCYtrGLyM-23">
          <mxGeometry width="50" height="50" relative="1" as="geometry">
            <mxPoint x="750" y="220" as="sourcePoint" />
            <mxPoint x="700" y="270" as="targetPoint" />
          </mxGeometry>
        </mxCell>
        <mxCell id="K40myK_4YShfCYtrGLyM-25" value="EnemyInSight" style="rounded=1;whiteSpace=wrap;html=1;" vertex="1" parent="1">
          <mxGeometry x="640" y="270" width="120" height="60" as="geometry" />
        </mxCell>
        <mxCell id="K40myK_4YShfCYtrGLyM-26" value="" style="endArrow=classic;html=1;rounded=0;exitX=0.75;exitY=1;exitDx=0;exitDy=0;" edge="1" parent="1" source="K40myK_4YShfCYtrGLyM-23">
          <mxGeometry width="50" height="50" relative="1" as="geometry">
            <mxPoint x="870" y="220" as="sourcePoint" />
            <mxPoint x="840" y="270" as="targetPoint" />
          </mxGeometry>
        </mxCell>
        <mxCell id="K40myK_4YShfCYtrGLyM-27" value="ObserveTheProblem" style="rounded=1;whiteSpace=wrap;html=1;" vertex="1" parent="1">
          <mxGeometry x="780" y="270" width="120" height="60" as="geometry" />
        </mxCell>
        <mxCell id="K40myK_4YShfCYtrGLyM-28" value="" style="endArrow=classic;html=1;rounded=0;exitX=1;exitY=1;exitDx=0;exitDy=0;" edge="1" parent="1" source="K40myK_4YShfCYtrGLyM-23">
          <mxGeometry width="50" height="50" relative="1" as="geometry">
            <mxPoint x="930" y="220" as="sourcePoint" />
            <mxPoint x="980" y="270" as="targetPoint" />
          </mxGeometry>
        </mxCell>
        <mxCell id="K40myK_4YShfCYtrGLyM-29" value="RunAway" style="rounded=1;whiteSpace=wrap;html=1;" vertex="1" parent="1">
          <mxGeometry x="920" y="270" width="120" height="60" as="geometry" />
        </mxCell>
        <mxCell id="K40myK_4YShfCYtrGLyM-30" value="" style="endArrow=classic;html=1;rounded=0;exitX=1;exitY=1;exitDx=0;exitDy=0;entryX=0.5;entryY=0;entryDx=0;entryDy=0;" edge="1" parent="1" target="K40myK_4YShfCYtrGLyM-31" source="K40myK_4YShfCYtrGLyM-1">
          <mxGeometry width="50" height="50" relative="1" as="geometry">
            <mxPoint x="780" y="110" as="sourcePoint" />
            <mxPoint x="865" y="160" as="targetPoint" />
          </mxGeometry>
        </mxCell>
        <mxCell id="K40myK_4YShfCYtrGLyM-31" value="Patrolling" style="rounded=1;whiteSpace=wrap;html=1;" vertex="1" parent="1">
          <mxGeometry x="805" y="160" width="120" height="60" as="geometry" />
        </mxCell>
        <mxCell id="K40myK_4YShfCYtrGLyM-33" value="HealAISequence" style="rounded=1;whiteSpace=wrap;html=1;" vertex="1" parent="1">
          <mxGeometry x="130" y="160" width="120" height="60" as="geometry" />
        </mxCell>
        <mxCell id="K40myK_4YShfCYtrGLyM-34" value="MainCoverSequence" style="rounded=1;whiteSpace=wrap;html=1;" vertex="1" parent="1">
          <mxGeometry x="410" y="160" width="120" height="60" as="geometry" />
        </mxCell>
      </root>
    </mxGraphModel>
  </diagram>
</mxfile>
